<svg class="welcome-logo" width="42" height="42" viewBox="0 0 42 42" xmlns="http://www.w3.org/2000/svg" xmlns:xlink="http://www.w3.org/1999/xlink">
  <g id="logo">
    <circle cx="21" cy="21" r="21" fill="#00AE55"/>
    <path fill="#ffffff" d="M20.654 23.428l-2.646-8.19h-2.916l-2.646 8.172-2.106-8.172H7.316L10.79 28h2.988l2.736-8.46L19.232 28h2.934l3.474-12.762h-2.916l-2.07 8.19zm8.442-.972h3.582c-.036-.684-.504-1.512-1.8-1.512-1.152 0-1.728.846-1.782 1.512zm3.78 2.322l2.286.648c-.432 1.548-1.854 2.844-4.122 2.844-2.466 0-4.662-1.764-4.662-4.77 0-2.88 2.142-4.716 4.464-4.716 2.772 0 4.482 1.71 4.482 4.59 0 .378-.036.792-.054.846h-6.228c.054 1.008.972 1.728 2.034 1.728.99 0 1.548-.468 1.8-1.17z"/>
  </g>

  <g id="arrow-right">
    <circle cx="9" cy="9" r="9"></circle>
    <circle fill="#FFF" cx="9" cy="9" r="8"></circle>
    <path d="M10.7125236,12.712499 C10.5125229,12.8999996 10.250022,13 10.0000211,13 C9.75002022,13 9.4875193,12.8999996 9.28751859,12.712499 C8.90001723,12.3124976 8.90001723,11.6874954 9.28751859,11.287494 L10.5875232,9.99998945 L5.00000352,9.99998945 C4.45000158,9.99998945 4,9.54998787 4,8.99998593 C4,8.449984 4.45000158,7.99998242 5.00000352,7.99998242 L10.5875232,7.99998242 L9.28751859,6.71247789 C8.90001723,6.31247648 8.90001723,5.68747428 9.28751859,5.28747288 C9.68752,4.89997151 10.3125222,4.89997151 10.7125236,5.28747288 L13.7125342,8.28748343 C14.1000355,8.68748483 14.1000355,9.31248703 13.7125342,9.71248844 L10.7125236,12.712499 Z" />
  </g>

  <g id="arrow-right-suggestion">
    <circle cx="9" cy="9" r="9"></circle>
    <circle fill="#ecf2f5" cx="9" cy="9" r="8"></circle>
    <path d="M10.7125236,12.712499 C10.5125229,12.8999996 10.250022,13 10.0000211,13 C9.75002022,13 9.4875193,12.8999996 9.28751859,12.712499 C8.90001723,12.3124976 8.90001723,11.6874954 9.28751859,11.287494 L10.5875232,9.99998945 L5.00000352,9.99998945 C4.45000158,9.99998945 4,9.54998787 4,8.99998593 C4,8.449984 4.45000158,7.99998242 5.00000352,7.99998242 L10.5875232,7.99998242 L9.28751859,6.71247789 C8.90001723,6.31247648 8.90001723,5.68747428 9.28751859,5.28747288 C9.68752,4.89997151 10.3125222,4.89997151 10.7125236,5.28747288 L13.7125342,8.28748343 C14.1000355,8.68748483 14.1000355,9.31248703 13.7125342,9.71248844 L10.7125236,12.712499 Z" />
  </g>

  <g id="sign">
    <path d="M14.0000492,0 C21.7292431,0 28.0000985,6.27085539 28.0000985,14.0000492 C28.0000985,21.7292431 21.7292431,28.0000985 14.0000492,28.0000985 C6.27085539,28.0000985 0,21.7292431 0,14.0000492 C0,6.27085539 6.27085539,0 14.0000492,0 Z" id="circle" fill="#00AE55"/>
    <path d="M20.5917391,11.6083742 C20.85424,11.3167065 21.0000739,10.9375385 21.0000739,10.5000369 C21.0000739,9.53753354 20.2125711,8.75003077 19.2500677,8.75003077 C18.6958991,8.75003077 18.2292308,8.98336492 17.9083963,9.39169969 C16.0708898,11.5792074 14.408384,13.5917145 12.6292111,15.7208886 C12.0167089,15.1083865 11.6083742,14.7000517 10.4708702,13.5917145 C10.1792025,13.27088 9.74170092,13.0667126 9.24586585,13.0667126 C8.28336246,13.0667126 7.49585969,13.8542154 7.49585969,14.8167188 C7.49585969,15.3125538 7.70002708,15.7500554 8.02086154,16.0417231 L11.5208738,19.5417354 C11.8125415,19.8625698 12.2500431,20.0667372 12.7458782,20.0667372 C13.3000468,20.0667372 13.7667151,19.8334031 14.0875495,19.4250683 C16.3333908,16.7417255 18.3458978,14.3208837 20.5917391,11.6083742 Z" fill="#FFFFFF"/>
  </g>

  <g id="chat">
    <circle fill="#00AE55" cx="21" cy="21" r="21"></circle>
    <path transform="translate(9, 9)" d="M4.00001407,-7.73668289e-05 L20.0000844,-7.73668289e-05 C22.2000921,-7.73668289e-05 24.0000985,1.79992896 24.0000985,3.9999367 L24.0000985,22.000007 C24.0000985,23.1000109 23.1000953,24.0000141 22.0000914,24.0000141 C21.4500895,24.0000141 20.9500877,23.7750133 20.5750864,23.425012 C18.8000802,21.6250057 18.6000795,21.4500051 17.1750745,20 L4.00001407,20 C1.80000633,20 0,18.1999937 0,15.9999859 L0,3.9999367 C0,1.79992896 1.80000633,-7.73668289e-05 4.00001407,-7.73668289e-05 Z" id="balloon" fill-opacity="0.6" fill="#0E141A" />
    <path transform="translate(9, 9)" d="M6.0000211,15.9999789 L12.0000492,15.9999789 C13.1000531,15.9999789 14.0000563,15.0999757 14.0000563,13.9999719 C14.0000563,12.899968 13.1000531,11.9999648 12.0000492,11.9999648 L6.0000211,11.9999648 C4.90001723,11.9999648 4.00001407,12.899968 4.00001407,13.9999719 C4.00001407,15.0999757 4.90001723,15.9999789 6.0000211,15.9999789 Z" id="line-2" fill="#FFFFFF" />
    <path transform="translate(9, 9)" d="M6.0000211,7.99995077 L18.0000703,7.99995077 C19.1000742,7.99995077 20.0000774,7.0999476 20.0000774,5.99994373 C20.0000774,4.89993986 19.1000742,3.9999367 18.0000703,3.9999367 L6.0000211,3.9999367 C4.90001723,3.9999367 4.00001407,4.89993986 4.00001407,5.99994373 C4.00001407,7.0999476 4.90001723,7.99995077 6.0000211,7.99995077 Z" id="line-1" fill="#FFFFFF" />
  </g>

  <g id="docs">
    <circle fill="#00AE55" cx="21" cy="21" r="21"></circle>
    <path transform="translate(11.5, 9)" d="M13.1250462,0.875003077 L19.1250673,6.87502418 C19.6750692,7.42502611 20.0000703,8.17502875 20.0000703,9.00003165 L20.0000703,21.0000739 C20.0000703,22.6500797 18.6500656,24.0000844 17.0000598,24.0000844 L3.00001055,24.0000844 C1.35000475,24.0000844 0,22.6500797 0,21.0000739 L0,3.00001055 C0,1.35000475 1.35000475,0 3.00001055,0 L11.0000387,0 C11.8250416,0 12.5750442,0.325001143 13.1250462,0.875003077 Z" id="sheet" fill-opacity="0.6" fill="#0E141A" />
    <path transform="translate(11.5, 9)" d="M11.0000387,10.0000352 L15.0000528,10.0000352 C15.5500547,10.0000352 16.0000563,9.55003358 16.0000563,9.00003165 C16.0000563,8.72503068 15.9000559,8.4750298 15.7000552,8.30002919 C14.3000503,6.87502418 13.1250462,5.70002005 11.7000411,4.30001512 C11.5250405,4.10001442 11.2750397,4.00001407 11.0000387,4.00001407 C10.4500367,4.00001407 10.0000352,4.45001565 10.0000352,5.00001758 L10.0000352,9.00003165 C10.0000352,9.55003358 10.4500367,10.0000352 11.0000387,10.0000352 Z" id="fold" fill="#FFFFFF" />
  </g>

  <g id="help">
    <circle fill="#00AE55" cx="21" cy="21" r="21"></circle>
    <path transform="translate(7, 7)" d="M14.0000492,-8.4400177e-05 C21.7250764,-8.4400177e-05 28.0000985,6.27493767 28.0000985,13.9999648 C28.0000985,21.724992 21.7250764,28.0000141 14.0000492,28.0000141 C6.27502207,28.0000141 0,21.724992 0,13.9999648 C0,6.27493767 6.27502207,-8.4400177e-05 14.0000492,-8.4400177e-05 Z" id="circle" fill-opacity="0.6" fill="#0E141A" />
    <path transform="translate(7, 7)" d="M16.0000563,19.9999859 L16.0000563,13.9999648 C16.0000563,12.899961 15.1000531,11.9999578 14.0000492,11.9999578 C12.9000454,11.9999578 12.0000422,12.899961 12.0000422,13.9999648 L12.0000422,19.9999859 C12.0000422,21.0999898 12.9000454,21.999993 14.0000492,21.999993 C15.1000531,21.999993 16.0000563,21.0999898 16.0000563,19.9999859 Z" id="rod" fill="#FFFFFF" />
    <path transform="translate(7, 7)" d="M14.0000492,9.99995077 C15.1000531,9.99995077 16.0000563,9.0999476 16.0000563,7.99994373 C16.0000563,6.89993986 15.1000531,5.9999367 14.0000492,5.9999367 C12.9000454,5.9999367 12.0000422,6.89993986 12.0000422,7.99994373 C12.0000422,9.0999476 12.9000454,9.99995077 14.0000492,9.99995077 Z" id="dot" fill="#FFFFFF" />
  </g>

  <g id="short-arrow-right">
    <path id="arrow" d="M10.7125236,12.712499 C10.5125229,12.8999996 10.250022,13 10.0000211,13 C9.75002022,13 9.4875193,12.8999996 9.28751859,12.712499 C8.90001723,12.3124976 8.90001723,11.6874954 9.28751859,11.287494 L10.5875232,9.99998945 L5.00000352,9.99998945 C4.45000158,9.99998945 4,9.54998787 4,8.99998593 C4,8.449984 4.45000158,7.99998242 5.00000352,7.99998242 L10.5875232,7.99998242 L9.28751859,6.71247789 C8.90001723,6.31247648 8.90001723,5.68747428 9.28751859,5.28747288 C9.68752,4.89997151 10.3125222,4.89997151 10.7125236,5.28747288 L13.7125342,8.28748343 C14.1000355,8.68748483 14.1000355,9.31248703 13.7125342,9.71248844 L10.7125236,12.712499 Z" />
  </g>

  <g id="alert">
    <path d="M17.4944775,2.82270242 L25.2924467,17.5251237 C27.2960916,21.2887269 24.8050737,26 20.7977839,26 L5.20184534,26 C1.19455557,26 -1.29646239,21.2887269 0.707182493,17.5251237 L8.50515177,2.82270242 C10.5087967,-0.940900807 15.4908326,-0.940900807 17.4944775,2.82270242 Z" fill="#FF4040" />
    <path d="M12.9998146,21.6677948 C14.2182473,21.6677948 15.1659172,20.6930487 15.1659172,19.5016923 C15.1659172,18.3103359 14.2182473,17.3355897 12.9998146,17.3355897 C11.8084582,17.3355897 10.833712,18.3103359 10.833712,19.5016923 C10.833712,20.6930487 11.8084582,21.6677948 12.9998146,21.6677948 Z" fill="#FFFFFF" />
    <path d="M15.1659172,13.0033845 L15.1659172,8.67117938 C15.1659172,7.47982296 14.2182473,6.5050768 12.9998146,6.5050768 C11.8084582,6.5050768 10.833712,7.47982296 10.833712,8.67117938 L10.833712,13.0033845 C10.833712,14.194741 11.8084582,15.1694871 12.9998146,15.1694871 C14.2182473,15.1694871 15.1659172,14.194741 15.1659172,13.0033845 Z" fill="#FFFFFF" />
  </g>

  <g id="checkmark">
    <circle cx="14" cy="14" r="14"></circle>
    <path d="M20.5917391,11.6083742 C20.85424,11.3167065 21.0000739,10.9375385 21.0000739,10.5000369 C21.0000739,9.53753354 20.2125711,8.75003077 19.2500677,8.75003077 C18.6958991,8.75003077 18.2292308,8.98336492 17.9083963,9.39169969 C16.0708898,11.5792074 14.408384,13.5917145 12.6292111,15.7208886 C12.0167089,15.1083865 11.6083742,14.7000517 10.4708702,13.5917145 C10.1792025,13.27088 9.74170092,13.0667126 9.24586585,13.0667126 C8.28336246,13.0667126 7.49585969,13.8542154 7.49585969,14.8167188 C7.49585969,15.3125538 7.70002708,15.7500554 8.02086154,16.0417231 L11.5208738,19.5417354 C11.8125415,19.8625698 12.2500431,20.0667372 12.7458782,20.0667372 C13.3000468,20.0667372 13.7667151,19.8334031 14.0875495,19.4250683 C16.3333908,16.7417255 18.3458978,14.3208837 20.5917391,11.6083742 Z" fill="#FFFFFF"></path>
  </g>

  <g id="checkmark-sm">
    <circle cx="7" cy="7" r="7"></circle>
    <path d="M10.2958695,5.80418708 C10.42712,5.65835323 10.5000369,5.46876923 10.5000369,5.25001846 C10.5000369,4.76876677 10.1062855,4.37501539 9.62503385,4.37501539 C9.34794954,4.37501539 9.11461539,4.49168246 8.95419816,4.69584985 C8.03544492,5.78960369 7.204192,6.79585723 6.31460554,7.86044431 C6.00835446,7.55419323 5.80418708,7.35002585 5.23543508,6.79585723 C5.08960123,6.63544 4.87085046,6.53335631 4.62293292,6.53335631 C4.14168123,6.53335631 3.74792985,6.92710769 3.74792985,7.40835939 C3.74792985,7.65627692 3.85001354,7.87502769 4.01043077,8.02086154 L5.76043692,9.77086769 C5.90627077,9.93128492 6.12502154,10.0333686 6.37293908,10.0333686 C6.65002339,10.0333686 6.88335754,9.91670154 7.04377477,9.71253416 C8.16669539,8.37086277 9.17294892,7.16044185 10.2958695,5.80418708 Z" fill="#FFFFFF"></path>
  </g>

  <g id="git-repository" stroke="none" stroke-width="1" fill="none" fill-rule="evenodd">
    <rect fill-opacity="0.4" fill="#FFFFFF" x="0" y="0" width="30" height="30" rx="15"></rect>
    <g transform="translate(5.000000, 5.000000)">
      <path d="M19.4142083,8.58578333 C16.5857917,5.75735 14.2426417,3.41421667 11.4142083,0.585783333 C11.052275,0.223866667 10.552275,0 9.99999167,0 C9.44770833,0 8.94770833,0.223866667 8.58579167,0.585783333 L8.585775,0.585783333 C5.75735833,3.41421667 3.41420833,5.75735 0.585791667,8.58578333 C0.223858333,8.94771667 -8.33333334e-06,9.44771667 -8.33333334e-06,10 C-8.33333334e-06,10.5522833 0.223858333,11.0522833 0.585791667,11.4142167 C3.41420833,14.24265 5.75735833,16.5857833 8.585775,19.4142167 L8.58579167,19.4142167 C8.94770833,19.7761333 9.44770833,20 9.99999167,20 C10.552275,20 11.052275,19.7761333 11.4142083,19.4142167 C14.2426417,16.5857833 16.5857917,14.24265 19.4142083,11.4142167 C19.7761417,11.0522833 19.9999917,10.5522833 19.9999917,10 C19.9999917,9.44771667 19.7761417,8.94771667 19.4142083,8.58578333" fill-opacity="0.6" fill="#0E141A"></path>
      <path d="M7.06786333,5.48207167 C7.02368,5.64728833 6.99999667,5.82087167 6.99999667,6.000005 C6.99999667,6.74027167 7.40221333,7.386555 7.99999667,7.73237167 L7.99999667,12.2676217 C7.40221333,12.6134383 6.99999667,13.2597383 6.99999667,14.000005 C6.99999667,15.1045717 7.89543,16.000005 8.99999667,16.000005 C10.10458,16.000005 10.9999967,15.1045717 10.9999967,14.000005 C10.9999967,13.2597383 10.59778,12.6134383 9.99999667,12.2676217 L9.99999667,8.08062167 C10.67043,8.61697167 11.3573967,9.16653833 12.0225967,9.698705 C12.00773,9.79697167 11.9999967,9.89758833 11.9999967,10.000005 C11.9999967,11.1045717 12.89543,12.000005 13.9999967,12.000005 C15.10458,12.000005 15.9999967,11.1045717 15.9999967,10.000005 C15.9999967,8.89542167 15.10458,8.000005 13.9999967,8.000005 C13.7430467,8.000005 13.4974467,8.048505 13.2717633,8.13678833 C12.51628,7.532405 11.7326633,6.905505 10.9771967,6.30113833 C10.9920467,6.20288833 10.9999967,6.10238833 10.9999967,6.000005 C10.9999967,4.89542167 10.10458,4.000005 8.99999667,4.000005 C8.82086333,4.000005 8.64728,4.02368833 8.48208,4.067855 C7.93968,3.52547167 7.36039667,2.94617167 6.79289667,2.37867167 L5.37868,3.79288833 C5.94618,4.36038833 6.52548,4.93968833 7.06786333,5.48207167" fill="#FFFFFF"></path>
    </g>
  </g>

  <g id="icon-plus" fill="#FFFFFF">
    <path transform="translate(-8, -8)" d="M19,17 L23,17 C23.5522847,17 24,17.4477153 24,18 C24,18.5522847 23.5522847,19 23,19 L19,19 L19,23 C19,23.5522847 18.5522847,24 18,24 C17.4477153,24 17,23.5522847 17,23 L17,19 L13,19 C12.4477153,19 12,18.5522847 12,18 C12,17.4477153 12.4477153,17 13,17 L17,17 L17,13 C17,12.4477153 17.4477153,12 18,12 C18.5522847,12 19,12.4477153 19,13 L19,17 Z"></path>
  </g>

  <g id="button-arrow-down" fill="#0E141A">
    <path d="M7.80002743,1.60000563 L4.80001688,5.60001969 C4.6166829,5.83335385 4.33334857,6.0000211 4.00001407,6.0000211 C3.66667956,6.0000211 3.38334523,5.83335385 3.20001125,5.60001969 L0.200000703,1.60000563 C0.0666669011,1.43333837 0,1.23333767 0,1.00000352 C0,0.450001583 0.450001583,0 1.00000352,0 L7.00002462,0 C7.55002655,0 8.00002813,0.450001583 8.00002813,1.00000352 C8.00002813,1.23333767 7.93336123,1.43333837 7.80002743,1.60000563 Z"></path>
  </g>

  <g id="button-arrow-up" fill="#0E141A">
    <path d="M7.80002743,1.60000563 L4.80001688,5.60001969 C4.6166829,5.83335385 4.33334857,6.0000211 4.00001407,6.0000211 C3.66667956,6.0000211 3.38334523,5.83335385 3.20001125,5.60001969 L0.200000703,1.60000563 C0.0666669011,1.43333837 0,1.23333767 0,1.00000352 C0,0.450001583 0.450001583,0 1.00000352,0 L7.00002462,0 C7.55002655,0 8.00002813,0.450001583 8.00002813,1.00000352 C8.00002813,1.23333767 7.93336123,1.43333837 7.80002743,1.60000563 Z" transform="translate(4.000014, 3.000011) scale(1, -1) translate(-4.000014, -3.000011) "></path>
  </g>

  <g id="add-environment">
    <rect fill="#FFFFFF" x="0" y="0" width="30" height="30" rx="15"></rect>
    <rect fill-opacity="0.4" fill="#0E141A" x="9" y="14" width="12" height="2" rx="1"></rect>
    <rect fill="#0E141A" x="14" y="9" width="2" height="12" rx="1"></rect>
  </g>

  <g id="status-unhealthy" transform="translate(0.000000, 2.000000)">
    <path d="M13.77385,11.07555 C11.9979,7.52365 10.58195,4.69176667 8.80633333,1.14053333 C8.48486667,0.4661 7.79688333,0 7,0 C6.20311667,0 5.51515,0.4661 5.19366667,1.14053333 L0.22615,11.07555 C0.08175,11.3520667 0,11.66645 0,12 C0,13.1045667 0.895433333,14 2,14 L12,14 C13.1045667,14 14,13.1045667 14,12 C14,11.66645 13.91825,11.3520667 13.77385,11.07555 Z" fill="#FF4040"></path>
    <path d="M8,8 C8,8.55228333 7.55228333,9 7,9 C6.44771667,9 6,8.55228333 6,8 L6,5 C6,4.44771667 6.44771667,4 7,4 C7.55228333,4 8,4.44771667 8,5 L8,8 Z" fill="#FFFFFF"></path>
    <path d="M7,12 C6.44771667,12 6,11.5522833 6,11 C6,10.4477167 6.44771667,10 7,10 C7.55228333,10 8,10.4477167 8,11 C8,11.5522833 7.55228333,12 7,12 Z" fill="#FFFFFF"></path>
  </g>

  <g id="status-none">
    <circle cx="7" cy="7" r="7" fill-opacity="0.4" fill="#0E141A"></circle>
    <rect id="line" fill="#FFFFFF" x="4" y="6" width="6" height="2" rx="1"></rect>
  </g>

  <g id="status-healthy">
    <circle cx="7" cy="7" r="7" fill="#00AE55"></circle>
    <path d="M10.2958695,5.80418708 C10.42712,5.65835323 10.5000369,5.46876923 10.5000369,5.25001846 C10.5000369,4.76876677 10.1062855,4.37501539 9.62503385,4.37501539 C9.34794954,4.37501539 9.11461539,4.49168246 8.95419816,4.69584985 C8.03544492,5.78960369 7.204192,6.79585723 6.31460554,7.86044431 C6.00835446,7.55419323 5.80418708,7.35002585 5.23543508,6.79585723 C5.08960123,6.63544 4.87085046,6.53335631 4.62293292,6.53335631 C4.14168123,6.53335631 3.74792985,6.92710769 3.74792985,7.40835939 C3.74792985,7.65627692 3.85001354,7.87502769 4.01043077,8.02086154 L5.76043692,9.77086769 C5.90627077,9.93128492 6.12502154,10.0333686 6.37293908,10.0333686 C6.65002339,10.0333686 6.88335754,9.91670154 7.04377477,9.71253416 C8.16669539,8.37086277 9.17294892,7.16044185 10.2958695,5.80418708 Z" fill="#FFFFFF"></path>
  </g>

  <g id="check">
    <path d="M12,5 C12,4.44771667 11.5522833,4 11,4 C10.6999167,4 10.4309,4.13235 10.2476167,4.34166667 L10.2474333,4.3415 C9.13515,5.61266667 5.84821667,9.36916667 4.0598,11.4130667 C3.2966,10.3954667 2.72796667,9.63728333 1.80266667,8.40356667 C1.6204,8.15866667 1.32875,8 1,8 C0.447716667,8 0,8.44771667 0,9 C0,9.2253 0.07455,9.43315 0.200266667,9.60035 C1.39918333,11.1989333 1.99921667,11.99895 3.19733333,13.5964333 C3.3796,13.8413333 3.67125,14 4,14 C4.30008333,14 4.5691,13.86765 4.75238333,13.6583333 L4.75256667,13.6585 C6.06958333,12.15335 10.4355667,7.16365 11.7525667,5.6585 L11.7523833,5.65833333 C11.9064333,5.48241667 12,5.2522 12,5"></path>
  </g>

  <g id="overview">
    <path d="M1.5 0h3C5.3334 0 6 .6666 6 1.5v3C6 5.3333 5.3334 6 4.5 6h-3C.6667 6 0 5.3333 0 4.5v-3C0 .6666.6667 0 1.5 0z" fill-opacity=".4"/>
    <path d="M9.5 0h3c.8334 0 1.5.6666 1.5 1.5v3c0 .8333-.6666 1.5-1.5 1.5h-3C8.6667 6 8 5.3333 8 4.5v-3C8 .6666 8.6667 0 9.5 0zM6 9.5v3c0 .8333-.6666 1.5-1.5 1.5h-3C.6667 14 0 13.3333 0 12.5v-3C0 8.6667.6667 8 1.5 8h3C5.3334 8 6 8.6667 6 9.5z"/>
    <path d="M9.5 8h3c.8334 0 1.5.6667 1.5 1.5v3c0 .8333-.6666 1.5-1.5 1.5h-3c-.8333 0-1.5-.6667-1.5-1.5v-3C8 8.6667 8.6667 8 9.5 8z" fill-opacity=".4"/>
  </g>

  <g id="services">
    <path d="M8.5167.15l6.7334 4.05c.45.2666.75.75.75 1.3v7c0 .55-.3 1.0333-.75 1.3l-6.7334 4.05c-.15.1-.3167.15-.5167.15s-.3666-.05-.5166-.15L.75 13.8C.3 13.5333 0 13.05 0 12.5v-7c0-.55.3-1.0334.75-1.3L7.4834.15C7.6334.05 7.8 0 8 0s.3667.05.5167.15zm5 6.7166C13.8 6.6833 14 6.3666 14 6s-.2-.6834-.4833-.8667c-1.7167-1.0167-3.2833-1.9667-5-2.9833C8.3667 2.05 8.1834 2 8 2c-.1833 0-.3666.05-.5166.15-1.7167 1.0166-3.2834 1.9666-5 2.9833C2.2 5.3166 2 5.6333 2 6s.2.6833.4833.8666c1.7167 1.0167 3.2834 1.9667 5 2.9834.15.1.3334.15.5167.15.1834 0 .3667-.05.5167-.15 1.7167-1.0167 3.2833-1.9667 5-2.9834z"/>
    <path d="M9 4c0 .55-.45 1-1 1s-1-.45-1-1 .45-1 1-1 1 .45 1 1zM6 6c0 .55-.45 1-1 1s-1-.45-1-1 .45-1 1-1 1 .45 1 1zm6 0c0 .55-.45 1-1 1s-1-.45-1-1 .45-1 1-1 1 .45 1 1zM9 8c0 .55-.45 1-1 1s-1-.45-1-1 .45-1 1-1 1 .45 1 1z" fill-opacity=".6"/>
  </g>

  <g id="activity">
    <path d="M3.0061 16.8896A1.0106 1.0106 0 0 0 3 17c0 .5523.4477 1 1 1a.9996.9996 0 0 0 .8741-.5144l.0005-.0008.0066-.0118 4.993-8.9874A.9953.9953 0 0 0 10 8c0-.5523-.4477-1-1-1H5c-.515 0-.9388.3893-.9938.8896l-.0007.0054-.0004.004-.999 8.9906" fill-opacity=".4"/>
    <path d="M6.9939 1.1104h-.0001A1.0112 1.0112 0 0 0 7 1c0-.5523-.4477-1-1-1a.9996.9996 0 0 0-.8742.5144l-.0004.0008-.0066.0118-4.993 8.9874A.9953.9953 0 0 0 0 10c0 .5523.4477 1 1 1h4c.515 0 .9388-.3893.9938-.8896l.0007-.0054.0004-.004.999-8.9906"/>
  </g>

  <g id="metrics">
    <rect height="14" rx="1.5" width="3" x="10"/>
    <rect fill-opacity=".4" height="9" rx="1.5" width="3" x="5" y="5"/>
    <rect height="11" rx="1.5" width="3" y="3"/>
  </g>

  <g id="logs">
    <path d="M16 11.5c0 .8333-.6666 1.5-1.5 1.5h-8c-.8333 0-1.5-.6667-1.5-1.5S5.6667 10 6.5 10h8c.8334 0 1.5.6667 1.5 1.5z" fill-opacity=".4"/>
    <path d="M1.5 10c.8333 0 1.5.6667 1.5 1.5S2.3333 13 1.5 13 0 12.3333 0 11.5.6667 10 1.5 10zM16 6.5c0 .8333-.6666 1.5-1.5 1.5h-8C5.6667 8 5 7.3333 5 6.5 5 5.6666 5.6667 5 6.5 5h8c.8334 0 1.5.6666 1.5 1.5z"/>
    <path d="M1.5 5C2.3333 5 3 5.6666 3 6.5 3 7.3333 2.3333 8 1.5 8S0 7.3333 0 6.5C0 5.6666.6667 5 1.5 5zM5 1.5C5 .6666 5.6667 0 6.5 0h8c.8334 0 1.5.6666 1.5 1.5 0 .8333-.6666 1.5-1.5 1.5h-8C5.6667 3 5 2.3333 5 1.5z" fill-opacity=".4"/>
    <path d="M1.5 0C2.3333 0 3 .6666 3 1.5 3 2.3333 2.3333 3 1.5 3S0 2.3333 0 1.5C0 .6666.6667 0 1.5 0z"/>
  </g>

  <g id="collaborators">
    <path d="M11 8C8.7833 8 7 6.2167 7 4s1.7833-4 4-4 4 1.7833 4 4-1.7833 4-4 4zm6 6c0 1.1-.9 2-2 2H7c-1.1 0-2-.9-2-2 0-2.7666 2.2333-5 5-5h2c2.7667 0 5 2.2334 5 5z" fill-opacity=".4"/>
    <path d="M6 8C3.7833 8 2 6.2167 2 4s1.7833-4 4-4 4 1.7833 4 4-1.7833 4-4 4zm6 6c0 1.1-.9 2-2 2H2c-1.1 0-2-.9-2-2 0-2.7666 2.2333-5 5-5h2c2.7667 0 5 2.2334 5 5z"/>
  </g>

  <g id="deployment">
    <path d="M4 13c-2.2167 0-4-1.7833-4-4 0-1.9166 1.35-3.5166 3.15-3.9166C3.05 4.75 3 4.3834 3 4c0-2.2167 1.7834-4 4-4 1.6834 0 3.1167 1.0333 3.7167 2.5.5167-.3167 1.1333-.5 1.8-.5 1.9334 0 3.5 1.5667 3.5 3.5 0 .2834-.0333.55-.1.8 1.2334.55 2.0834 1.7667 2.0834 3.2 0 1.9334-1.55 3.4834-3.4834 3.5z" fill-opacity=".3"/>
    <path d="M12.7125 8.2875C12.8875 8.475 13 8.725 13 9c0 .55-.45 1-1 1-.275 0-.525-.1125-.7125-.2875-.575-.5875-.95-.9625-1.2875-1.3V14c0 .55-.45 1-1 1s-1-.45-1-1V8.4125c-.3375.3375-.7125.7125-1.2875 1.3C6.525 9.8875 6.275 10 6 10c-.55 0-1-.45-1-1 0-.275.1125-.525.2875-.7125 1.425-1.4125 1.5875-1.575 3-3C8.475 5.1125 8.725 5 9 5s.525.1125.7125.2875c1.4125 1.425 1.575 1.5875 3 3z"/>
  </g>

  <g id="settings">
    <rect fill-opacity=".4" height="4" rx="2" width="16" y="8"/>
    <circle cx="9" cy="10" r="3"/>
    <rect fill-opacity=".4" height="4" rx="2" width="16" y="1"/>
    <circle cx="6" cy="3" r="3"/>
  </g>

</svg>
